<svg fill="#000000" xmlns="http://www.w3.org/2000/svg"  viewBox="0 0 30 30" width="30px" height="30px"><path d="M 11 2 L 4 13 L 11 25 L 11 19.652344 C 9 19.652344 9 17 9 16 C 10 16 12 18 12 18 C 12 18 12.560884 16.598993 14.056641 16.148438 C 14.141599 16.986027 14.310527 17.542046 14.470703 17.931641 C 14.695137 18.477527 14.789064 18.520226 14.789062 19.232422 C 14.789062 19.312832 14.797364 19.286452 14.740234 19.355469 C 14.683094 19.424489 14.534194 19.547369 14.320312 19.697266 C 14.106431 19.847162 13.829998 20.019277 13.550781 20.316406 C 13.271566 20.613536 13 21.108001 13 21.654297 C 13 22.514521 13.454446 23.141985 13.685547 23.466797 C 13.916648 23.791609 14 23.861302 14 24.337891 C 14 24.494735 13.862499 24.79688 13.71875 25.353516 C 13.702084 25.418051 13.701141 25.503406 13.691406 25.578125 L 12.740234 26 L 15 29 L 17.259766 26 L 15.826172 25.365234 C 15.915552 25.0982 16 24.76927 16 24.337891 C 16 23.392479 15.583352 22.684579 15.314453 22.306641 C 15.057557 21.945574 15.017925 21.920701 15.013672 21.683594 C 15.072112 21.622664 15.237957 21.495733 15.46875 21.333984 C 15.702369 21.170256 16.002764 20.967247 16.28125 20.630859 C 16.559736 20.294472 16.789063 19.784509 16.789062 19.232422 C 16.789062 18.215618 16.490879 17.586739 16.320312 17.171875 C 16.216983 16.920546 16.12579 16.647551 16.066406 16.191406 C 17.467059 16.680675 18 18 18 18 C 18 18 20 16 21 16 C 21 17 21 19.652344 19 19.652344 L 19 25 L 26 13 L 19 2 L 21.0625 9.1933594 C 20.1435 9.5873594 20.169922 10.507812 20.169922 10.507812 C 20.169922 10.507813 21.563 10.035 22 11 C 22.569 12.255 20.589844 13 19.589844 13 C 18.589844 13 18 12 18 12 C 18 12 17.853502 13.546735 15.898438 13.917969 C 15.770599 13.221877 15.54092 12.719332 15.326172 12.404297 C 15.012439 11.94405 15 12.103906 15 11.736328 C 15 11.676468 14.939623 11.772068 15.070312 11.673828 C 15.201004 11.575588 15.521415 11.424315 15.912109 11.248047 C 16.302804 11.071779 16.770999 10.864903 17.207031 10.464844 C 17.643065 10.064784 18 9.3957563 18 8.65625 C 18 7.5988839 17.312347 6.7904201 16.662109 6.4335938 C 16.140932 6.1475903 15.687189 6.0640473 15.296875 6.0332031 C 15.224382 5.8833769 14.608294 4.571621 14.941406 3.7128906 C 13.923406 3.7128906 13.544922 4.5936094 13.544922 4.9746094 C 13.544922 5.4896094 14.008328 6.1308281 13.611328 6.5488281 C 13.093328 7.0968281 12.796875 7.2277188 12.796875 7.8867188 C 12.796875 8.3317188 13.15725 8.628375 13.40625 8.734375 C 13.56225 7.945375 14.111 8 15 8 C 15.05309 8 15.470206 8.059873 15.699219 8.1855469 C 15.928231 8.3112204 16 8.3296161 16 8.65625 C 16 8.8727437 15.981937 8.8761531 15.855469 8.9921875 C 15.729001 9.1082219 15.447196 9.2636746 15.087891 9.4257812 C 14.728585 9.5878881 14.298995 9.7496184 13.867188 10.074219 C 13.435378 10.398819 13 11.026692 13 11.736328 C 13 12.63175 13.487561 13.257996 13.673828 13.53125 C 13.741662 13.630763 13.798591 13.72867 13.849609 13.847656 C 12.150162 13.39262 12 12 12 12 C 12 12 10.410156 13 9.4101562 13 C 8.4101562 13 7.431 12.255 8 11 C 8.437 10.035 9.8300781 10.507813 9.8300781 10.507812 C 9.8300781 10.507812 9.8565 9.5873594 8.9375 9.1933594 L 11 2 z"/></svg>